<?xml version="1.0" standalone="no"?>
<!DOCTYPE svg PUBLIC "-//W3C//DTD SVG 20010904//EN"
 "http://www.w3.org/TR/2001/REC-SVG-20010904/DTD/svg10.dtd">
<svg version="1.0" xmlns="http://www.w3.org/2000/svg"
 width="700.000000pt" height="700.000000pt" viewBox="0 0 700.000000 700.000000"
 preserveAspectRatio="xMidYMid meet">
<metadata>
Created by potrace 1.14, written by Peter Selinger 2001-2017
</metadata>
<g transform="translate(0.000000,700.000000) scale(0.100000,-0.100000)"
fill="#000000" stroke="none">
<path d="M1388 6415 c-2 -2 -28 -5 -58 -8 -119 -13 -310 -94 -410 -175 -177
-144 -302 -357 -328 -562 -4 -30 -7 -1018 -6 -2195 l0 -2140 23 -85 c79 -294
273 -509 556 -615 60 -23 85 -29 181 -43 28 -5 1011 -8 2185 -7 l2134 1 85 23
c340 91 585 350 649 684 16 84 17 246 16 2231 l-1 2141 -23 85 c-85 321 -322
559 -641 642 l-85 22 -2137 1 c-1176 1 -2139 1 -2140 0z m4247 -598 c87 -29
155 -99 185 -192 11 -33 13 -427 13 -2115 0 -1141 -3 -2092 -7 -2112 -16 -89
-97 -181 -187 -214 -40 -15 -232 -16 -2139 -16 -1893 0 -2099 1 -2138 16 -85
31 -153 102 -182 191 -11 33 -13 428 -13 2125 0 1944 1 2088 17 2137 33 99
127 176 232 191 26 4 975 7 2108 6 1897 -1 2065 -2 2111 -17z"/>
<path d="M2045 5145 c3 -58 7 -118 10 -133 2 -15 7 -49 10 -77 9 -74 49 -237
85 -345 46 -137 155 -361 212 -435 4 -5 31 -41 59 -80 46 -62 219 -242 276
-286 186 -146 419 -248 633 -277 104 -14 329 -7 415 12 340 77 619 263 844
563 33 45 61 84 61 87 0 3 12 22 26 43 88 129 199 409 240 608 10 50 14 73 19
115 4 25 8 56 10 70 3 14 7 73 10 133 l5 107 -293 0 -293 0 0 -42 c-3 -228
-70 -480 -176 -658 -173 -294 -458 -476 -728 -464 -388 17 -757 428 -825 919
-4 28 -9 61 -11 75 -2 14 -5 58 -6 97 l-3 73 -292 0 -292 0 4 -105z"/>
</g>
</svg>
